ffmpeg version 4.2.7-0ubuntu0.1 Copyright (c) 2000-2022 the FFmpeg developers
  built with gcc 9 (Ubuntu 9.4.0-1ubuntu1~20.04.1)
  configuration: --prefix=/usr --extra-version=0ubuntu0.1 --toolchain=hardened --libdir=/usr/lib/x86_64-linux-gnu --incdir=/usr/include/x86_64-linux-gnu --arch=amd64 --enable-gpl --disable-stripping --enable-avresample --disable-filter=resample --enable-avisynth --enable-gnutls --enable-ladspa --enable-libaom --enable-libass --enable-libbluray --enable-libbs2b --enable-libcaca --enable-libcdio --enable-libcodec2 --enable-libflite --enable-libfontconfig --enable-libfreetype --enable-libfribidi --enable-libgme --enable-libgsm --enable-libjack --enable-libmp3lame --enable-libmysofa --enable-libopenjpeg --enable-libopenmpt --enable-libopus --enable-libpulse --enable-librsvg --enable-librubberband --enable-libshine --enable-libsnappy --enable-libsoxr --enable-libspeex --enable-libssh --enable-libtheora --enable-libtwolame --enable-libvidstab --enable-libvorbis --enable-libvpx --enable-libwavpack --enable-libwebp --enable-libx265 --enable-libxml2 --enable-libxvid --enable-libzmq --enable-libzvbi --enable-lv2 --enable-omx --enable-openal --enable-opencl --enable-opengl --enable-sdl2 --enable-libdc1394 --enable-libdrm --enable-libiec61883 --enable-nvenc --enable-chromaprint --enable-frei0r --enable-libx264 --enable-shared
  libavutil      56. 31.100 / 56. 31.100
  libavcodec     58. 54.100 / 58. 54.100
  libavformat    58. 29.100 / 58. 29.100
  libavdevice    58.  8.100 / 58.  8.100
  libavfilter     7. 57.100 /  7. 57.100
  libavresample   4.  0.  0 /  4.  0.  0
  libswscale      5.  5.100 /  5.  5.100
  libswresample   3.  5.100 /  3.  5.100
  libpostproc    55.  5.100 / 55.  5.100
Routing option strict to both codec and muxer layer
[h264 @ 0x55c3badacd40] Reinit context to 1920x1088, pix_fmt: yuv420p
Input #0, mov,mp4,m4a,3gp,3g2,mj2, from '/var/www/html/project/media/video/original/1000093645.mp4':
  Metadata:
    major_brand     : mp42
    minor_version   : 0
    compatible_brands: isommp42
    creation_time   : 2024-02-05T15:51:22.000000Z
    com.android.version: 14
  Duration: 00:01:26.27, start: 0.000000, bitrate: 12999 kb/s
    Stream #0:0(eng): Video: h264 (High), 1 reference frame (avc1 / 0x31637661), yuv420p(tv, bt709, left), 1920x1080 (1920x1088), 12868 kb/s, 30 fps, 30 tbr, 90k tbn, 180k tbc (default)
    Metadata:
      creation_time   : 2024-02-05T15:51:22.000000Z
      handler_name    : VideoHandle
    Stream #0:1(eng): Audio: aac (LC) (mp4a / 0x6134706D), 48000 Hz, stereo, fltp, 128 kb/s (default)
    Metadata:
      creation_time   : 2024-02-05T15:51:22.000000Z
      handler_name    : SoundHandle
Input #1, png_pipe, from '/var/www/html/project/static/images/templates/logo.png':
  Duration: N/A, bitrate: N/A
    Stream #1:0: Video: png, 1 reference frame, rgba(pc), 1920x1080 [SAR 2835:2835 DAR 16:9], 25 tbr, 25 tbn, 25 tbc
[Parsed_scale_0 @ 0x55c3bae29800] w:1920 h:1080 flags:'bilinear' interl:0
[Parsed_scale_2 @ 0x55c3bae2af40] w:1920 h:1080 flags:'bilinear' interl:0
Stream mapping:
  Stream #0:0 (h264) -> scale (graph 0)
  Stream #1:0 (png) -> scale (graph 0)
  overlay (graph 0) -> Stream #0:0 (libx264)
  Stream #0:1 -> #0:1 (aac (native) -> aac (native))
Press [q] to stop, [?] for help
[graph_1_in_0_1 @ 0x55c3bb1a3240] tb:1/48000 samplefmt:fltp samplerate:48000 chlayout:0x3
[h264 @ 0x55c3badd1380] Reinit context to 1920x1088, pix_fmt: yuv420p
[Parsed_scale_0 @ 0x55c3bae25400] w:1920 h:1080 flags:'bilinear' interl:0
[Parsed_scale_2 @ 0x55c3bbe58100] w:1920 h:1080 flags:'bilinear' interl:0
[graph 0 input from stream 0:0 @ 0x55c3bbe5a440] w:1920 h:1080 pixfmt:yuv420p tb:1/90000 fr:30/1 sar:0/1 sws_param:flags=2
[graph 0 input from stream 1:0 @ 0x55c3bbe5b4c0] w:1920 h:1080 pixfmt:rgba tb:1/25 fr:25/1 sar:2835/2835 sws_param:flags=2
[Parsed_scale_0 @ 0x55c3bae25400] w:1920 h:1080 fmt:yuv420p sar:0/1 -> w:1920 h:1080 fmt:yuv420p sar:0/1 flags:0x2
[Parsed_setsar_1 @ 0x55c3bae28740] w:1920 h:1080 sar:0/1 dar:16/9 -> sar:1/1 dar:16/9
[Parsed_scale_2 @ 0x55c3bbe58100] w:1920 h:1080 fmt:rgba sar:2835/2835 -> w:1920 h:1080 fmt:yuva420p sar:1/1 flags:0x2
[Parsed_setsar_3 @ 0x55c3bbe58a40] w:1920 h:1080 sar:1/1 dar:16/9 -> sar:1/1 dar:16/9
[Parsed_overlay_4 @ 0x55c3bbe59640] main w:1920 h:1080 fmt:yuv420p overlay w:1920 h:1080 fmt:yuva420p
[Parsed_overlay_4 @ 0x55c3bbe59640] [framesync @ 0x55c3bbe59768] Selected 1/90000 time base
[Parsed_overlay_4 @ 0x55c3bbe59640] [framesync @ 0x55c3bbe59768] Sync level 2
[libx264 @ 0x55c3bae08900] using SAR=1/1
[libx264 @ 0x55c3bae08900] using cpu capabilities: MMX2 SSE2Fast SSSE3 SSE4.2 AVX FMA3 BMI2 AVX2
[libx264 @ 0x55c3bae08900] profile High, level 4.0
[libx264 @ 0x55c3bae08900] 264 - core 155 r2917 0a84d98 - H.264/MPEG-4 AVC codec - Copyleft 2003-2018 - http://www.videolan.org/x264.html - options: cabac=1 ref=1 deblock=1:0:0 analyse=0x3:0x113 me=hex subme=2 psy=1 psy_rd=1.00:0.00 mixed_ref=0 me_range=16 chroma_me=1 trellis=0 8x8dct=1 cqm=0 deadzone=21,11 fast_pskip=1 chroma_qp_offset=0 threads=24 lookahead_threads=8 sliced_threads=0 nr=0 decimate=1 interlaced=0 bluray_compat=0 constrained_intra=0 bframes=3 b_pyramid=2 b_adapt=1 b_bias=0 direct=1 weightb=1 open_gop=0 weightp=1 keyint=250 keyint_min=25 scenecut=40 intra_refresh=0 rc_lookahead=10 rc=crf mbtree=1 crf=18.0 qcomp=0.60 qpmin=0 qpmax=69 qpstep=4 ip_ratio=1.40 aq=1:1.00
Output #0, mp4, to '/var/www/html/project/media/video/watermarks/1000093645.mp4':
  Metadata:
    major_brand     : mp42
    minor_version   : 0
    compatible_brands: isommp42
    com.android.version: 14
    encoder         : Lavf58.29.100
    Stream #0:0: Video: h264 (libx264), 1 reference frame (avc1 / 0x31637661), yuv420p, 1920x1080 [SAR 1:1 DAR 16:9], q=-1--1, 30 fps, 15360 tbn, 30 tbc (default)
    Metadata:
      encoder         : Lavc58.54.100 libx264
    Side data:
      cpb: bitrate max/min/avg: 0/0/0 buffer size: 0 vbv_delay: -1
    Stream #0:1(eng): Audio: aac (LC) (mp4a / 0x6134706D), 48000 Hz, stereo, fltp, delay 1024, 128 kb/s (default)
    Metadata:
      creation_time   : 2024-02-05T15:51:22.000000Z
      handler_name    : SoundHandle
      encoder         : Lavc58.54.100 aac
[Parsed_overlay_4 @ 0x55c3bbe59640] [framesync @ 0x55c3bbe59768] Sync level 0
No more output streams to write to, finishing.
frame= 2588 fps= 38 q=-1.0 Lsize=  221971kB time=00:01:26.16 bitrate=21103.1kbits/s speed=1.28x    
[AVIOContext @ 0x55c3badab0c0] Statistics: 0 seeks, 128 writeouts
video:220520kB audio:1357kB subtitle:0kB other streams:0kB global headers:0kB muxing overhead: 0.042312%
Input file #0 (/var/www/html/project/media/video/original/1000093645.mp4):
  Input stream #0:0 (video): 2588 packets read (138760960 bytes); 2588 frames decoded; 
  Input stream #0:1 (audio): 4008 packets read (1368308 bytes); 4008 frames decoded (4104192 samples); 
  Total: 6596 packets (140129268 bytes) demuxed
Input file #1 (/var/www/html/project/static/images/templates/logo.png):
  Input stream #1:0 (video): 1 packets read (111578 bytes); 1 frames decoded; 
  Total: 1 packets (111578 bytes) demuxed
Output file #0 (/var/www/html/project/media/video/watermarks/1000093645.mp4):
  Output stream #0:0 (video): 2588 frames encoded; 2588 packets muxed (225812893 bytes); 
  Output stream #0:1 (audio): 4008 frames encoded (4104192 samples); 4009 packets muxed (1389094 bytes); 
  Total: 6597 packets (227201987 bytes) muxed
[AVIOContext @ 0x55c3bae2c300] Statistics: 2 seeks, 870 writeouts
[libx264 @ 0x55c3bae08900] frame I:18    Avg QP:17.91  size:415791
[libx264 @ 0x55c3bae08900] frame P:770   Avg QP:20.72  size:165917
[libx264 @ 0x55c3bae08900] frame B:1800  Avg QP:23.93  size: 50318
[libx264 @ 0x55c3bae08900] consecutive B-frames:  4.3%  7.1%  5.8% 82.8%
[libx264 @ 0x55c3bae08900] mb I  I16..4:  4.2% 23.8% 72.1%
[libx264 @ 0x55c3bae08900] mb P  I16..4:  3.3%  9.9%  5.6%  P16..4: 37.4% 17.8% 21.8%  0.0%  0.0%    skip: 4.2%
[libx264 @ 0x55c3bae08900] mb B  I16..4:  0.7%  2.3%  0.8%  B16..8: 28.2% 14.1%  7.0%  direct:15.2%  skip:31.6%  L0:35.3% L1:32.2% BI:32.5%
[libx264 @ 0x55c3bae08900] 8x8 transform intra:52.6% inter:58.7%
[libx264 @ 0x55c3bae08900] coded y,uvDC,uvAC intra: 71.0% 69.7% 14.1% inter: 37.2% 16.7% 0.7%
[libx264 @ 0x55c3bae08900] i16 v,h,dc,p: 25% 37% 25% 12%
[libx264 @ 0x55c3bae08900] i8 v,h,dc,ddl,ddr,vr,hd,vl,hu: 17% 25% 24%  4%  6%  5%  7%  4%  6%
[libx264 @ 0x55c3bae08900] i4 v,h,dc,ddl,ddr,vr,hd,vl,hu: 18% 18% 11%  7% 10%  9% 10%  7%  9%
[libx264 @ 0x55c3bae08900] i8c dc,h,v,p: 47% 26% 18%  9%
[libx264 @ 0x55c3bae08900] Weighted P-Frames: Y:12.7% UV:1.7%
[libx264 @ 0x55c3bae08900] kb/s:20940.85
[aac @ 0x55c3bae2b8c0] Qavg: 543.155
[AVIOContext @ 0x55c3badb4040] Statistics: 226012852 bytes read, 5080 seeks
[AVIOContext @ 0x55c3badbd840] Statistics: 111578 bytes read, 0 seeks
